<?xml version="1.0" encoding="UTF-8"?>
<svg xmlns="http://www.w3.org/2000/svg" version="1.1" viewBox="0 0 800 800"><desc>by dimas7080</desc>
  <defs>
    <style>
      .st0 {
        fill: none;
        stroke: #777;
        stroke-linecap: round;
        stroke-linejoin: round;
      }
    </style>
  </defs>
  <g transform="translate(800, 0) scale(-33.333333333333336, 33.333333333333336)" class="st0" style="stroke-width: 2px;">
    <path d="M17.94 17.94A10.07 10.07 0 0 1 12 20c-7 0-11-8-11-8a18.45 18.45 0 0 1 5.06-5.94M9.9 4.24A9.12 9.12 0 0 1 12 4c7 0 11 8 11 8a18.5 18.5 0 0 1-2.16 3.19m-6.72-1.07a3 3 0 1 1-4.24-4.24"/>
    <line x1="1" y1="1" x2="23" y2="23"/>
  </g>
</svg>
